<mxfile host="65bd71144e">
    <diagram id="Ok7LZsyV_mkYhO9Twty3" name="Asset Model">
        <mxGraphModel dx="516" dy="245" grid="1" gridSize="10" guides="1" tooltips="1" connect="1" arrows="1" fold="1" page="1" pageScale="1" pageWidth="850" pageHeight="1100" math="0" shadow="0">
            <root>
                <mxCell id="0"/>
                <mxCell id="1" parent="0"/>
            </root>
        </mxGraphModel>
    </diagram>
    <diagram id="KsiYCbE0VE86xnDKix2T" name="策略运行流程">
        <mxGraphModel dx="748" dy="459" grid="1" gridSize="10" guides="1" tooltips="1" connect="1" arrows="1" fold="1" page="1" pageScale="1" pageWidth="850" pageHeight="1100" math="0" shadow="0">
            <root>
                <mxCell id="SV7IRWbwRl0LyNJ0UstM-0"/>
                <mxCell id="SV7IRWbwRl0LyNJ0UstM-1" parent="SV7IRWbwRl0LyNJ0UstM-0"/>
                <mxCell id="SV7IRWbwRl0LyNJ0UstM-2" value="交易数据Server" style="rounded=1;whiteSpace=wrap;html=1;" vertex="1" parent="SV7IRWbwRl0LyNJ0UstM-1">
                    <mxGeometry x="80" y="80" width="120" height="60" as="geometry"/>
                </mxCell>
                <mxCell id="SV7IRWbwRl0LyNJ0UstM-3" value="事件Server" style="rounded=1;whiteSpace=wrap;html=1;" vertex="1" parent="SV7IRWbwRl0LyNJ0UstM-1">
                    <mxGeometry x="80" y="190" width="120" height="60" as="geometry"/>
                </mxCell>
                <mxCell id="SV7IRWbwRl0LyNJ0UstM-4" value="日历Server" style="rounded=1;whiteSpace=wrap;html=1;" vertex="1" parent="SV7IRWbwRl0LyNJ0UstM-1">
                    <mxGeometry x="80" y="310" width="120" height="60" as="geometry"/>
                </mxCell>
                <mxCell id="SV7IRWbwRl0LyNJ0UstM-5" value="策略" style="rounded=1;whiteSpace=wrap;html=1;" vertex="1" parent="SV7IRWbwRl0LyNJ0UstM-1">
                    <mxGeometry x="320" y="80" width="120" height="60" as="geometry"/>
                </mxCell>
                <mxCell id="SV7IRWbwRl0LyNJ0UstM-6" value="交易者" style="rounded=1;whiteSpace=wrap;html=1;" vertex="1" parent="SV7IRWbwRl0LyNJ0UstM-1">
                    <mxGeometry x="320" y="190" width="120" height="60" as="geometry"/>
                </mxCell>
                <mxCell id="SV7IRWbwRl0LyNJ0UstM-7" value="市场" style="rounded=1;whiteSpace=wrap;html=1;" vertex="1" parent="SV7IRWbwRl0LyNJ0UstM-1">
                    <mxGeometry x="320" y="310" width="120" height="60" as="geometry"/>
                </mxCell>
            </root>
        </mxGraphModel>
    </diagram>
</mxfile>